<?xml version="1.0" encoding="UTF-8" standalone="no"?>
<svg
   xmlns:dc="http://purl.org/dc/elements/1.1/"
   xmlns:cc="http://creativecommons.org/ns#"
   xmlns:rdf="http://www.w3.org/1999/02/22-rdf-syntax-ns#"
   xmlns:svg="http://www.w3.org/2000/svg"
   xmlns="http://www.w3.org/2000/svg"
   xmlns:sodipodi="http://sodipodi.sourceforge.net/DTD/sodipodi-0.dtd"
   xmlns:inkscape="http://www.inkscape.org/namespaces/inkscape"
   version="1.1"
   id="Layer_1"
   x="0px"
   y="0px"
   viewBox="0 0 511.999 511.999"
   style="enable-background:new 0 0 511.999 511.999;"
   xml:space="preserve"
   sodipodi:docname="daffodil-icon.svg"
   inkscape:version="1.0.2-2 (e86c870879, 2021-01-15)"><metadata
   id="metadata880"><rdf:RDF><cc:Work
       rdf:about=""><dc:format>image/svg+xml</dc:format><dc:type
         rdf:resource="http://purl.org/dc/dcmitype/StillImage" /><dc:title></dc:title></cc:Work></rdf:RDF></metadata><defs
   id="defs878" /><sodipodi:namedview
   pagecolor="#ffffff"
   bordercolor="#666666"
   borderopacity="1"
   objecttolerance="10"
   gridtolerance="10"
   guidetolerance="10"
   inkscape:pageopacity="0"
   inkscape:pageshadow="2"
   inkscape:window-width="3440"
   inkscape:window-height="1346"
   id="namedview876"
   showgrid="false"
   inkscape:zoom="1.9375038"
   inkscape:cx="255.9995"
   inkscape:cy="255.9995"
   inkscape:window-x="-11"
   inkscape:window-y="-11"
   inkscape:window-maximized="1"
   inkscape:current-layer="Layer_1" />
<path
   style="fill:#ffe650;stroke:#000000;stroke-width:4.89018;stroke-miterlimit:4;stroke-dasharray:none;stroke-opacity:1;paint-order:markers stroke fill"
   d="m 504.79298,251.01395 c -1.56584,-2.2084 -35.85385,-49.81336 -100.06685,-71.13456 -6.03253,-2.00302 -9.6366,-8.24681 -8.35145,-14.47201 13.69447,-66.348056 -10.52759,-119.92393 -11.66505,-122.388583 -1.53454,-3.313588 -5.03787,-5.286288 -8.6165,-4.974294 -2.70036,0.247443 -61.14881,6.049157 -111.7407,51.018307 -4.74934,4.221207 -11.95454,4.221207 -16.70291,0 C 197.05764,44.09366 138.60821,38.291946 135.90883,38.044503 c -3.61776,-0.329599 -7.08588,1.660706 -8.61651,4.974294 -1.13843,2.463675 -25.36049,56.040527 -11.66504,122.387603 1.28514,6.22618 -2.31795,12.46899 -8.35146,14.47201 -64.214955,21.32218 -98.5039442,68.92616 -100.0688029,71.13554 -2.1115813,2.98986 -2.1115813,6.98612 0,9.97402 1.5658368,2.20841 35.8538479,49.81337 100.0668529,71.13457 6.03253,2.00302 9.63659,8.24583 8.35145,14.47201 -13.69447,66.34708 10.52759,119.92393 11.66505,122.3876 1.53062,3.31359 5.01341,5.24424 8.6165,4.9743 2.70036,-0.24745 61.14881,-6.04916 111.74069,-51.01831 4.74935,-4.22121 11.95455,-4.22121 16.70292,0 50.59188,44.96915 109.04131,50.77086 111.74069,51.01831 0.26114,0.0215 0.52227,0.0333 0.78439,0.0333 3.33901,0 6.41201,-1.93553 7.83309,-5.00853 1.13844,-2.46367 25.3605,-56.04052 11.66505,-122.3876 -1.28514,-6.22618 2.31794,-12.46899 8.35145,-14.47201 64.21203,-21.3212 98.50102,-68.92518 100.06685,-71.13456 2.11256,-2.98888 2.11256,-6.98514 9.8e-4,-9.97305 z"
   id="path833" />
<path
   style="fill:#ffd250;stroke-width:0.978037"
   d="m 404.72711,332.12156 c 0.12617,-0.042 0.24255,-0.0929 0.36774,-0.13497 L 273.2242,255.96575 404.34176,179.66618 c -5.77335,-2.15071 -9.22093,-8.18226 -7.96611,-14.2588 0.0841,-0.40686 0.12813,-0.79906 0.2093,-1.20396 L 264.63313,240.98908 V 88.828081 c -0.0929,0.08313 -0.18876,0.152574 -0.28168,0.235707 -4.74934,4.221207 -11.95454,4.221207 -16.70389,0 -0.0929,-0.08313 -0.18876,-0.152573 -0.28167,-0.235707 V 241.0595 L 115.56762,165.08071 c 0.0225,0.1115 0.0342,0.21713 0.0567,0.32667 1.28514,6.22618 -2.31794,12.46899 -8.35145,14.47201 -0.12617,0.042 -0.24255,0.0929 -0.36872,0.13497 l 131.86967,76.02084 -131.11658,76.29957 c 5.77335,2.15071 9.22093,8.18128 7.96611,14.2588 -0.0841,0.40686 -0.12813,0.80004 -0.2093,1.20592 l 131.95182,-76.78566 v 152.16002 c 0.0929,-0.0831 0.18876,-0.15258 0.28167,-0.23571 4.74935,-4.22218 11.95455,-4.22218 16.70389,0 0.0929,0.0831 0.18877,0.15257 0.28168,0.23571 V 270.94243 l 131.79827,75.97976 c -0.0225,-0.11149 -0.0342,-0.2181 -0.0567,-0.3296 -1.28515,-6.22422 2.31794,-12.46801 8.35243,-14.47103 z"
   id="path835" />
<path
   style="fill:#fff073;stroke-width:0.978037"
   d="M 411.4071,247.36686 H 270.95516 l 70.22695,-121.6355 c 2.38152,-4.13122 0.96923,-9.40969 -3.162,-11.7961 -4.14883,-2.39521 -9.4136,-0.96923 -11.7961,3.16199 L 256,238.73079 185.77501,117.09725 c -2.39522,-4.13122 -7.67172,-5.55622 -11.79611,-3.16199 -4.13122,2.38641 -5.54351,7.66488 -3.16199,11.7961 l 70.22695,121.6355 H 100.59192 c -4.76793,0 -8.634109,3.86618 -8.634109,8.6341 0,4.76793 3.866179,8.63411 8.634109,8.63411 h 140.45194 l -70.22695,121.6355 c -2.38152,4.13122 -0.96923,9.40969 3.16199,11.7961 1.36241,0.78438 2.84609,1.15506 4.30826,1.15506 2.98496,0 5.88484,-1.54726 7.48687,-4.31706 l 70.22499,-121.63353 70.22402,121.63256 c 1.60202,2.76882 4.50288,4.31705 7.48784,4.31705 1.46217,0 2.95074,-0.37165 4.30826,-1.15506 4.13122,-2.38641 5.54351,-7.66488 3.16199,-11.7961 L 270.95516,264.63409 H 411.4071 c 4.76793,0 8.63411,-3.86617 8.63411,-8.6341 0,-4.76695 -3.86618,-8.63313 -8.63411,-8.63313 z"
   id="path837" />
<path
   style="fill:#ff783c;stroke-width:2;stroke:#000000;stroke-opacity:1;stroke-miterlimit:4;stroke-dasharray:none"
   d="m 350.97128,256.00096 c 0,7.73041 -17.99099,12.99518 -19.8962,20.12409 -1.97173,7.37733 10.91782,20.91825 7.17976,27.3772 -3.78989,6.55089 -21.99409,2.12821 -27.31167,7.44482 -5.31661,5.3166 -0.89491,23.5208 -7.4458,27.31069 -6.45797,3.7361 -19.99791,-9.15344 -27.37329,-7.18172 -7.13086,1.90619 -12.39368,19.8962 -20.12408,19.8962 -7.7304,0 -12.99518,-17.99098 -20.12409,-19.8962 -7.37733,-1.97172 -20.91824,10.91782 -27.3772,7.17977 -6.55089,-3.78989 -2.12821,-21.99409 -7.44481,-27.31168 -5.31661,-5.3166 -23.52081,-0.8949 -27.3107,-7.44579 -3.7361,-6.45798 9.15344,-19.99792 7.18172,-27.37329 -1.90619,-7.12891 -19.8962,-12.39271 -19.8962,-20.12311 0,-7.7304 17.99099,-12.99517 19.8962,-20.12408 1.97172,-7.37733 -10.91782,-20.91825 -7.17977,-27.37721 3.7899,-6.55089 21.99409,-2.1282 27.31168,-7.44481 5.31661,-5.31661 0.8949,-23.52081 7.44579,-27.3107 6.45798,-3.7361 19.99792,9.15345 27.37329,7.18173 7.13087,-1.90718 12.39369,-19.89718 20.12409,-19.89718 7.7304,0 12.99517,17.99098 20.12408,19.8962 7.37733,1.97172 20.91825,-10.91783 27.37721,-7.17977 6.55089,3.78989 2.1282,21.99409 7.44481,27.31168 5.31661,5.3166 23.52081,0.8949 27.3107,7.44579 3.7361,6.45798 -9.15345,19.99792 -7.18172,27.37329 1.90521,7.12989 19.8962,12.39368 19.8962,20.12408 z"
   id="path839" />
<path
   style="fill:#ff963c;stroke-width:0.978037"
   d="m 260.70533,210.68754 16.80463,-8.94121 c 6.53915,-3.47985 14.46223,1.0954 14.71847,8.49816 l 0.6592,19.02477 c 0.11541,3.33022 1.87881,6.38561 4.70534,8.15096 l 16.14543,10.08356 c 6.28193,3.92291 6.28193,13.07244 0,16.99535 l -16.14543,10.08355 c -2.82653,1.76536 -4.59091,4.82075 -4.70534,8.15096 l -0.6592,19.02477 c -0.25722,7.40276 -8.17932,11.97704 -14.71847,8.49816 l -16.80463,-8.94121 c -2.94193,-1.56486 -6.46971,-1.56486 -9.41164,0 l -16.80463,8.94121 c -6.53915,3.47986 -14.46223,-1.0954 -14.71848,-8.49816 l -0.65919,-19.02477 c -0.11541,-3.33021 -1.87881,-6.3856 -4.70534,-8.15096 l -16.14543,-10.08355 c -6.28193,-3.92291 -6.28193,-13.07244 0,-16.99535 l 16.14543,-10.08356 c 2.82653,-1.76535 4.59091,-4.82074 4.70534,-8.15096 l 0.65919,-19.02477 c 0.25723,-7.40276 8.17933,-11.97703 14.71848,-8.49816 l 16.80463,8.94121 c 2.94291,1.56584 6.46971,1.56584 9.41164,0 z"
   id="path841" />
<circle
   style="fill:#ffe650;stroke-width:2;stroke-miterlimit:4;stroke-dasharray:none;stroke:#000000;stroke-opacity:1"
   cx="256.00098"
   cy="256.00098"
   r="17.267239"
   id="circle843" />
<g
   id="g845"
   transform="matrix(0.97803672,0,0,0.97803672,5.6225976,5.6225853)">
</g>
<g
   id="g847"
   transform="matrix(0.97803672,0,0,0.97803672,5.6225976,5.6225853)">
</g>
<g
   id="g849"
   transform="matrix(0.97803672,0,0,0.97803672,5.6225976,5.6225853)">
</g>
<g
   id="g851"
   transform="matrix(0.97803672,0,0,0.97803672,5.6225976,5.6225853)">
</g>
<g
   id="g853"
   transform="matrix(0.97803672,0,0,0.97803672,5.6225976,5.6225853)">
</g>
<g
   id="g855"
   transform="matrix(0.97803672,0,0,0.97803672,5.6225976,5.6225853)">
</g>
<g
   id="g857"
   transform="matrix(0.97803672,0,0,0.97803672,5.6225976,5.6225853)">
</g>
<g
   id="g859"
   transform="matrix(0.97803672,0,0,0.97803672,5.6225976,5.6225853)">
</g>
<g
   id="g861"
   transform="matrix(0.97803672,0,0,0.97803672,5.6225976,5.6225853)">
</g>
<g
   id="g863"
   transform="matrix(0.97803672,0,0,0.97803672,5.6225976,5.6225853)">
</g>
<g
   id="g865"
   transform="matrix(0.97803672,0,0,0.97803672,5.6225976,5.6225853)">
</g>
<g
   id="g867"
   transform="matrix(0.97803672,0,0,0.97803672,5.6225976,5.6225853)">
</g>
<g
   id="g869"
   transform="matrix(0.97803672,0,0,0.97803672,5.6225976,5.6225853)">
</g>
<g
   id="g871"
   transform="matrix(0.97803672,0,0,0.97803672,5.6225976,5.6225853)">
</g>
<g
   id="g873"
   transform="matrix(0.97803672,0,0,0.97803672,5.6225976,5.6225853)">
</g>
</svg>
